<svg width="32" height="32" viewBox="0 0 32 32" fill="none" xmlns="http://www.w3.org/2000/svg">
  <!-- Main body - irregular rounded organic shape like a waterdrop or pebble, dark purple/gray -->
  <path d="M16 2.5C20.8 2.5 25 4.2 27 7.8C28.3 10.2 28.8 13.2 27.8 16.2C26.5 19.8 23.5 22.5 20 23.8C16.5 25 12.5 24.5 9.5 22.5C6.8 20.8 4.8 18 4.8 14.8C4.8 11.5 6.2 8.2 8.5 6C10.8 3.8 13.5 2.5 16 2.5Z" fill="#4A2C5F"/>
  
  <!-- Crown on top center-right - three pointed parts -->
  <path d="M17.8 4L18.3 2.5L19.3 4L20.3 2.5L21.3 4L19.8 6.2L17.8 4Z" fill="#4A2C5F"/>
  
  <!-- Two small white circular eyes on top, surprised expression -->
  <circle cx="12.8" cy="11.2" r="1.4" fill="white"/>
  <circle cx="19.2" cy="11.2" r="1.4" fill="white"/>
  
  <!-- Question mark mouth/nose - white cutout in bottom center-left, question mark shape -->
  <path d="M9.8 20.2C9.8 18.5 10.6 17 12 17C13.4 17 14.2 18.5 14.2 20.2C14.2 21.9 12.8 23.3 11.5 23.3C10.2 23.3 8.8 21.9 8.8 20.2Z" fill="white"/>
  <circle cx="11.3" cy="22" r="0.9" fill="#4A2C5F"/>
  
  <!-- Three short thin diagonal emphasis lines on upper left - like lightbulb moment -->
  <line x1="5.2" y1="5.2" x2="6.5" y2="6.5" stroke="#4A2C5F" stroke-width="1.3" stroke-linecap="round"/>
  <line x1="4.5" y1="6.8" x2="5.8" y2="8.1" stroke="#4A2C5F" stroke-width="1.3" stroke-linecap="round"/>
  <line x1="5" y1="8.5" x2="6.3" y2="9.8" stroke="#4A2C5F" stroke-width="1.3" stroke-linecap="round"/>
</svg>
